<?xml version="1.0" encoding="UTF-8"?>
<svg id="Layer_1" data-name="Layer 1" xmlns="http://www.w3.org/2000/svg" viewBox="0 0 1920 1920">
  <defs>
    <style>
      .cls-1 {
        fill: #f06224;
      }

      .cls-2 {
        fill: #fff;
      }
    </style>
  </defs>
  <g>
    <g>
      <g>
        <path class="cls-2" d="M880.1,840.22c82.43-1.17,140.13,71.42,117.75,151.41-31.6,112.94-205.74,110.41-232.5-4.68-17.94-77.19,35.6-145.61,114.75-146.73ZM879.44,905.89c-65.95,2.44-63.52,108.78,6.96,103.8,64.58-4.56,61.27-106.33-6.96-103.8Z"/>
        <path class="cls-2" d="M735.09,1074.7h-71.59l.03-117.36c2.48-39.77-38.66-54.77-68.31-33.07-2.91,2.13-15.02,14.65-15.02,17.5v132.93h-71.27c-.07,0-.98-.91-.98-.98v-220.36c0-.07.91-.98.98-.98h71.27v24.7c15.23-15.1,34.16-25.27,55.74-27.86,59.5-7.14,95.39,28.22,99.15,86.04v139.43Z"/>
      </g>
      <polygon class="cls-2" points="1085.89 850.44 1135.68 1007.1 1186.77 850.44 1264.22 850.44 1179.96 1072.12 1092.15 1072.79 1008.44 850.44 1085.89 850.44"/>
    </g>
    <g>
      <path class="cls-2" d="M1414.57,1070.8v-20.8c-24.32,23.77-64.07,31.46-95.85,19.35-33.67-12.83-44.49-50.11-35.14-82.9,15.15-53.15,84.78-60.56,130.99-52.81-.52-8.52-2.18-17.98-9.16-23.67-16.13-13.14-59.7-3.63-78.69,1.9-5.08,1.48-10.49,3.31-15.3,5.51l-12.69-57.82c15.99-5.48,32.49-9.7,49.25-12.26,68.66-10.52,133.15,1.18,136.92,82.74,2.11,45.59-1.66,92.76,0,138.52.14.67-.47,2.24-1.01,2.24h-69.31ZM1414.53,976.58c-20.41-4.53-65.62-3.03-63.74,26.94,1.34,21.31,25.05,22.43,41.27,18.49,4.01-.98,21.34-7.93,22.37-11.46l.1-33.96Z"/>
      <g>
        <path class="cls-2" d="M1920.27,870.59v1.95l-1.1,4.2-29.66,47.15c-1.13.88-1.91,1.44-3.17.32-35.64-29.36-99.63-22.41-99.59,32.87.04,57.79,63.32,63.12,100.03,33.74,1.31-.78,2.63-.86,3.58.42l28.65,47.02,1.28,4.6v1.95c-53.17,43.8-144.07,41.18-186.39-16.32-28.86-39.21-29.35-99.96-1.58-139.89,30.53-43.9,89.41-56.65,139.3-43.16,17.81,4.82,34.45,13.52,48.67,25.17Z"/>
        <path class="cls-2" d="M1631.82,840.22c27.89-.36,58.94,8.28,81.41,24.91,1.42,1.05,7.26,5.18,7.24,6.42l-32.25,52.34c-8.3-6.07-17.02-11.61-26.99-14.62-34.71-10.48-72.81,2.66-75.52,42.87-2.97,44.08,31.75,65.83,72.54,54.9,11.38-3.05,20.41-8.83,29.91-15.49l32.03,51.28c.34.69.41,1.29-.03,1.96-.39.61-5.89,4.51-7.04,5.35-25.4,18.53-58.04,26.28-89.34,24.58-150.79-8.17-150.71-232.44,8.03-234.5Z"/>
      </g>
    </g>
  </g>
  <g>
    <path class="cls-1" d="M445.47,754.88c16.24,3.83,25,14.15,26.06,30.85-.59,118.68,1.05,237.51-.83,356.09-2.99,13.37-13.99,22.39-27.48,23.9H28.58c-14.43-1.16-26.78-11.61-28.31-26.33l.03-359.48c1.95-13.23,12.28-21.79,24.73-25.03h420.44ZM433.1,792.59H38.04v334.77h395.06v-334.77Z"/>
    <g>
      <path class="cls-2" d="M241.75,1074.7h-72.24v-224.26h71.27c.07,0,.98.91.98.98v24.38c15.92-15.96,37.36-27.02,60.21-28.59,64.08-4.42,93.59,35.15,96.02,95.19,1.74,42.93-1.39,87.02,0,130.07.14.67-.47,2.24-1.01,2.24h-70.94c-.07,0-.98-.91-.98-.98v-125.46c0-2.98-2.53-11.41-3.79-14.42-10.75-25.73-47.01-24.86-66.16-9.29-2.52,2.05-13.36,14.02-13.36,16.56v133.58Z"/>
      <path class="cls-2" d="M147.38,850.44v224.26h-72.24v-223.29c0-.07.91-.98.98-.98h71.27Z"/>
    </g>
  </g>
</svg>